<svg width="34" height="34" viewBox="0 0 34 34" fill="none" xmlns="http://www.w3.org/2000/svg">
<g opacity="0.6" clip-path="url(#clip0_358_1781)">
<path d="M16.9997 2.83301C9.17967 2.83301 2.83301 9.17967 2.83301 16.9997C2.83301 24.8197 9.17967 31.1663 16.9997 31.1663C24.8197 31.1663 31.1663 24.8197 31.1663 16.9997C31.1663 9.17967 24.8197 2.83301 16.9997 2.83301ZM16.9997 7.08301C19.3513 7.08301 21.2497 8.98134 21.2497 11.333C21.2497 13.6847 19.3513 15.583 16.9997 15.583C14.648 15.583 12.7497 13.6847 12.7497 11.333C12.7497 8.98134 14.648 7.08301 16.9997 7.08301ZM16.9997 27.1997C13.458 27.1997 10.3272 25.3863 8.49967 22.638C8.54217 19.8188 14.1663 18.2747 16.9997 18.2747C19.8188 18.2747 25.4572 19.8188 25.4997 22.638C23.6722 25.3863 20.5413 27.1997 16.9997 27.1997Z" fill="white"/>
</g>
<defs>
<clipPath id="clip0_358_1781">
<rect width="34" height="34" fill="white"/>
</clipPath>
</defs>
</svg>
